<?xml version="1.0" encoding="UTF-8"?>
<svg xmlns="http://www.w3.org/2000/svg" 
    xmlns:xlink="http://www.w3.org/1999/xlink" width="35pt" height="35pt" viewBox="0 0 35 35" version="1.1">
    <g id="surface1">
        <path style=" stroke:none;fill-rule:nonzero;fill:rgb(0%,0%,0%);fill-opacity:1;" d="M 17.5 2.917969 C 11.871094 2.917969 7.292969 7.496094 7.292969 13.125 C 7.292969 20.78125 17.5 32.082031 17.5 32.082031 C 17.5 32.082031 27.707031 20.78125 27.707031 13.125 C 27.707031 7.496094 23.128906 2.917969 17.5 2.917969 Z M 17.5 5.832031 C 19.105469 5.832031 20.417969 7.144531 20.417969 8.75 C 20.417969 10.367188 19.105469 11.667969 17.5 11.667969 C 15.894531 11.667969 14.582031 10.367188 14.582031 8.75 C 14.582031 7.144531 15.894531 5.832031 17.5 5.832031 Z M 17.5 20.417969 C 15.066406 20.417969 12.921875 19.175781 11.667969 17.28125 C 11.695312 15.355469 15.558594 14.292969 17.5 14.292969 C 19.441406 14.292969 23.304688 15.355469 23.332031 17.28125 C 22.078125 19.175781 19.933594 20.417969 17.5 20.417969 Z M 17.5 20.417969 "/>
    </g>
</svg>
